<svg width="20" height="20" viewBox="0 0 20 20" fill="none" xmlns="http://www.w3.org/2000/svg">
<path d="M2.47363 8.22969V3.81536C2.47363 3.0436 3.09937 2.41797 3.87125 2.41797H16.1293C16.9011 2.41797 17.5269 3.0436 17.5269 3.81536V8.22969" stroke="#17181C" stroke-miterlimit="10" stroke-linecap="round" stroke-linejoin="round"/>
<path d="M18.688 16.473H1.31203C0.911014 16.473 0.585938 16.1479 0.585938 15.7469V11.2944C0.585938 10.8935 0.911014 10.5684 1.31203 10.5684H18.688C19.089 10.5684 19.4141 10.8935 19.4141 11.2944V15.7469C19.4141 16.1479 19.089 16.473 18.688 16.473Z" stroke="#17181C" stroke-miterlimit="10" stroke-linecap="round" stroke-linejoin="round"/>
<path d="M18.4382 10.5672V9.64477C18.4382 8.86262 17.804 8.22852 17.0217 8.22852H2.97898C2.19668 8.22852 1.5625 8.86262 1.5625 9.64477V10.5672" stroke="#17181C" stroke-miterlimit="10" stroke-linecap="round" stroke-linejoin="round"/>
<path d="M8.29285 8.22926C8.69246 8.22926 9.01641 7.90535 9.01641 7.50578V6.61406C9.01641 6.21453 8.69246 5.89062 8.29285 5.89062H5.14645C4.7468 5.89062 4.42285 6.21453 4.42285 6.61406V7.50578C4.42285 7.90535 4.7468 8.22926 5.14645 8.22926" stroke="#17181C" stroke-miterlimit="10" stroke-linecap="round" stroke-linejoin="round"/>
<path d="M14.8534 8.22926C15.253 8.22926 15.577 7.90535 15.577 7.50578V6.61406C15.577 6.21453 15.253 5.89062 14.8534 5.89062H11.707C11.3074 5.89062 10.9834 6.21453 10.9834 6.61406V7.50578C10.9834 7.90535 11.3074 8.22926 11.707 8.22926" stroke="#17181C" stroke-miterlimit="10" stroke-linecap="round" stroke-linejoin="round"/>
<path d="M1.83301 16.4727V17.5831" stroke="#17181C" stroke-miterlimit="10" stroke-linecap="round" stroke-linejoin="round"/>
<path d="M18.167 16.4727V17.5831" stroke="#17181C" stroke-miterlimit="10" stroke-linecap="round" stroke-linejoin="round"/>
</svg>
