<svg width="24" height="24" viewBox="0 0 24 24" fill="none" xmlns="http://www.w3.org/2000/svg">
<path fill-rule="evenodd" clip-rule="evenodd" d="M9.696 2.04808C9.87418 1.54144 10.2055 1.10277 10.6442 0.792852C11.0828 0.482933 11.6069 0.317113 12.144 0.31837H13.2C13.788 0.316707 14.3585 0.517932 14.8153 0.888086C15.2721 1.25824 15.5872 1.77466 15.7075 2.35018C15.8278 2.92571 15.7458 3.52511 15.4754 4.04721C15.2051 4.56932 14.7628 4.98217 14.2234 5.21608L11.9623 6.20523C11.8657 6.2465 11.7867 6.32057 11.7394 6.41437H14.6846C14.9687 6.41437 15.2413 6.52725 15.4422 6.72818C15.6431 6.92912 15.756 7.20164 15.756 7.4858C15.756 7.76996 15.6431 8.04248 15.4422 8.24341C15.2413 8.44434 14.9687 8.55723 14.6846 8.55723H10.6217C10.4809 8.55745 10.3414 8.5299 10.2112 8.47616C10.081 8.42242 9.96266 8.34353 9.86299 8.24402C9.76331 8.14451 9.68424 8.02632 9.63029 7.89621C9.57634 7.76611 9.54857 7.62664 9.54857 7.4858V6.62008C9.54857 5.58808 10.1589 4.65551 11.1034 4.24237L13.3663 3.25323C13.4553 3.21675 13.5287 3.15023 13.5738 3.06523C13.6188 2.98023 13.6327 2.88214 13.6129 2.78799C13.5931 2.69384 13.541 2.6096 13.4656 2.5499C13.3901 2.4902 13.2962 2.45883 13.2 2.46123H12.144C12.0501 2.46017 11.9583 2.48876 11.8817 2.54294C11.805 2.59712 11.7475 2.67411 11.7171 2.76294C11.6702 2.89565 11.5976 3.01782 11.5034 3.12246C11.4093 3.22711 11.2954 3.31218 11.1684 3.37283C10.9119 3.49532 10.6172 3.51088 10.3491 3.41608C10.2164 3.36915 10.0943 3.29653 9.98962 3.20238C9.88497 3.10823 9.79989 2.99438 9.73924 2.86735C9.61676 2.6108 9.6012 2.3161 9.696 2.04808ZM20.16 0.805227C20.3505 0.588185 20.6027 0.434346 20.8828 0.3642C21.163 0.294054 21.4579 0.310931 21.7282 0.412583C21.9985 0.514235 22.2315 0.695837 22.396 0.9332C22.5605 1.17056 22.6488 1.45242 22.6491 1.74123V4.8938C22.9224 4.90927 23.1793 5.02872 23.3673 5.22763C23.5553 5.42654 23.66 5.68984 23.66 5.96351C23.66 6.23718 23.5553 6.50048 23.3673 6.69939C23.1793 6.89831 22.9224 7.01775 22.6491 7.03323V7.48751C22.6491 7.77167 22.5363 8.04419 22.3353 8.24513C22.1344 8.44606 21.8619 8.55894 21.5777 8.55894C21.2935 8.55894 21.021 8.44606 20.8201 8.24513C20.6192 8.04419 20.5063 7.77167 20.5063 7.48751V7.03494H17.8834C17.6062 7.03542 17.3347 6.95588 17.1016 6.80585C16.8685 6.65583 16.6836 6.4417 16.5692 6.18919C16.4548 5.93667 16.4158 5.65651 16.4567 5.38232C16.4976 5.10814 16.6168 4.8516 16.8 4.64351L20.16 0.805227ZM19.4314 4.89208L20.5063 3.66294V4.89208H19.4314ZM15.2829 23.6567C14.2309 23.7693 13.1722 23.5182 12.2829 22.9452C7.84411 19.957 4.02539 16.1382 1.03714 11.6995C0.475636 10.8015 0.239105 9.73803 0.367017 8.68666C0.494929 7.63528 0.979547 6.65957 1.73999 5.92237L2.39142 5.27094C2.68348 4.982 3.07773 4.81994 3.48857 4.81994C3.8994 4.81994 4.29365 4.982 4.58571 5.27094L7.22571 8.0138C7.51359 8.30294 7.67521 8.69435 7.67521 9.10237C7.67521 9.51039 7.51359 9.9018 7.22571 10.1909C6.93677 10.483 6.77471 10.8772 6.77471 11.2881C6.77471 11.6989 6.93677 12.0932 7.22571 12.3852L11.5971 16.7567C11.8892 17.0456 12.2834 17.2077 12.6943 17.2077C13.1051 17.2077 13.4994 17.0456 13.7914 16.7567C14.0806 16.4688 14.472 16.3071 14.88 16.3071C15.288 16.3071 15.6794 16.4688 15.9686 16.7567L18.7114 19.4824C19.0004 19.7744 19.1624 20.1687 19.1624 20.5795C19.1624 20.9903 19.0004 21.3846 18.7114 21.6767L18.06 22.3281C17.313 23.0748 16.333 23.5436 15.2829 23.6567Z" fill="#212121"/>
</svg>
