<svg width="30" height="24" viewBox="0 0 30 24" fill="none" xmlns="http://www.w3.org/2000/svg">
<path d="M23.7044 16.5651C28.9136 10.855 30.723 4.37046 27.7825 1.43001C26.1854 -0.165426 23.5551 -0.435755 20.3742 0.668779C18.4769 1.33216 16.4934 2.44001 14.5828 3.89448C9.42006 -0.0310917 4.02841 -1.17211 1.40804 1.40679L1.39477 1.42006C1.39477 1.42006 1.39477 1.42006 1.38316 1.43167C1.38316 1.43167 1.38316 1.43167 1.37155 1.44494C0.442814 2.39524 -0.00165384 3.70874 4.62371e-06 5.24115C4.62371e-06 8.47349 1.96694 12.6843 5.48619 16.5419C4.90905 19.0412 5.23908 21.2088 6.62224 22.5903C7.58249 23.5456 8.90925 24 10.4566 24C11.7237 24 13.14 23.6965 14.626 23.1177C17.8832 24.3698 20.7954 24.2902 22.5219 22.6102L22.5435 22.5936L22.5551 22.5804L22.5683 22.5687C23.9051 21.2072 24.2931 19.1075 23.7044 16.5651ZM14.5828 6.91786C15.0085 7.29488 15.4342 7.69402 15.8599 8.11527C18.3326 10.588 20.1868 13.3593 21.084 15.9216C18.9048 18.0975 16.6476 19.6449 14.616 20.5836C12.5728 19.6465 10.2941 18.0959 8.09495 15.8918C8.91257 13.5567 10.639 10.7771 13.3009 8.11527C13.7221 7.69734 14.1494 7.2982 14.5828 6.91786ZM21.1421 2.87951C23.3976 2.09671 25.2136 2.173 26.1274 3.08516C27.7494 4.70713 26.6946 9.3276 22.837 13.9962C21.7275 11.4537 19.8717 8.81845 17.515 6.46012C17.159 6.1019 16.7985 5.75694 16.4337 5.42524C17.8715 4.35301 19.4575 3.49547 21.1421 2.87951ZM3.05323 3.07189C4.54585 1.61244 8.51122 2.36704 12.732 5.43188C12.366 5.76357 12.0056 6.10632 11.6507 6.46012C9.22436 8.88645 7.42161 11.5068 6.34362 13.9696C2.50262 9.31102 1.44618 4.70215 3.05323 3.07189ZM8.27738 20.9368C7.76492 20.4244 7.51946 19.6101 7.546 18.5918C8.77588 19.7099 10.1086 20.7094 11.5263 21.577C10.0834 21.8092 8.93413 21.5936 8.27738 20.9368ZM17.7223 21.5654C19.113 20.7089 20.4216 19.7256 21.6313 18.6282C21.6495 19.6233 21.4041 20.4111 20.8999 20.9236C20.2515 21.5621 19.1303 21.7777 17.7223 21.5654Z" fill="black"/>
</svg>
