<svg width="40" height="40" viewBox="0 0 40 40" fill="none" xmlns="http://www.w3.org/2000/svg">
<g clip-path="url(#clip0_326_232)">
<path opacity="0.996" fill-rule="evenodd" clip-rule="evenodd" d="M18.1641 -0.0390625C18.763 -0.0390625 19.362 -0.0390625 19.9609 -0.0390625C19.9609 3.08594 19.9609 6.21094 19.9609 9.33594C16.003 9.52992 12.9561 11.2747 10.8203 14.5703C8.5807 12.3047 6.34115 10.0391 4.10156 7.77344C7.66077 3.18042 12.3483 0.576253 18.1641 -0.0390625Z" fill="#EB4131"/>
<path opacity="0.995" fill-rule="evenodd" clip-rule="evenodd" d="M19.9609 -0.0390625C20.5599 -0.0390625 21.1588 -0.0390625 21.7578 -0.0390625C27.0219 0.52258 31.4229 2.76216 34.9609 6.67969C32.7734 8.9193 30.5599 11.1328 28.3203 13.3203C27.1882 12.0519 25.8601 11.0493 24.3359 10.3125C22.9362 9.71227 21.4778 9.3868 19.9609 9.33594C19.9609 6.21094 19.9609 3.08594 19.9609 -0.0390625Z" fill="#CF2C47"/>
<path opacity="0.994" fill-rule="evenodd" clip-rule="evenodd" d="M4.10156 7.77344C6.34115 10.0391 8.5807 12.3047 10.8203 14.5703C9.32195 17.2679 8.99641 20.1065 9.84375 23.0859C10.1286 23.8634 10.4541 24.6186 10.8203 25.3516C8.5807 27.6172 6.34115 29.8828 4.10156 32.1484C2.26238 29.8495 1.02541 27.2454 0.390625 24.3359C0.227892 23.4684 0.0846625 22.6091 -0.0390625 21.7578C-0.0390625 20.5599 -0.0390625 19.362 -0.0390625 18.1641C0.325763 14.2852 1.70597 10.8216 4.10156 7.77344Z" fill="#FABC00"/>
<path opacity="0.994" fill-rule="evenodd" clip-rule="evenodd" d="M39.9609 18.1641C39.9609 19.3619 39.9609 20.5599 39.9609 21.7578C39.3455 27.5737 36.7414 32.2612 32.1484 35.8203C29.8828 33.5807 27.6172 31.3412 25.3516 29.1016C27.052 28.0521 28.3801 26.6458 29.3359 24.8828C26.2114 24.8047 23.0864 24.7787 19.9609 24.8047C19.9609 21.6537 19.9609 18.5026 19.9609 15.3516C26.4716 15.3255 32.982 15.3516 39.4922 15.4297C39.6786 16.3461 39.8348 17.2575 39.9609 18.1641Z" fill="#3B79E5"/>
<path opacity="0.997" fill-rule="evenodd" clip-rule="evenodd" d="M10.8203 25.3516C12.9584 28.6481 16.0052 30.3929 19.9609 30.5859C19.9609 33.7109 19.9609 36.8359 19.9609 39.9609C19.362 39.9609 18.763 39.9609 18.1641 39.9609C12.3482 39.3455 7.66068 36.7414 4.10156 32.1484C6.34115 29.8828 8.5807 27.6172 10.8203 25.3516Z" fill="#31AA51"/>
<path opacity="0.996" fill-rule="evenodd" clip-rule="evenodd" d="M25.3516 29.1016C27.6172 31.3412 29.8828 33.5807 32.1484 35.8203C29.8495 37.6595 27.2454 38.8965 24.3359 39.5312C23.4706 39.7073 22.6112 39.8505 21.7578 39.9609C21.1588 39.9609 20.5599 39.9609 19.9609 39.9609C19.9609 36.8359 19.9609 33.7109 19.9609 30.5859C21.877 30.5171 23.6739 30.0223 25.3516 29.1016Z" fill="#0F9D58"/>
</g>
<defs>
<clipPath id="clip0_326_232">
<rect width="40" height="40" fill="white"/>
</clipPath>
</defs>
</svg>
