<svg width="36" height="24" viewBox="0 0 36 24" fill="none" xmlns="http://www.w3.org/2000/svg">
<g clip-path="url(#clip0_270_369)">
<path d="M33.6 24H2.4C1.76348 24 1.15303 23.7471 0.702944 23.2971C0.252856 22.847 0 22.2365 0 21.6L0 2.4C0 1.76348 0.252856 1.15303 0.702944 0.702944C1.15303 0.252856 1.76348 0 2.4 0L33.6 0C34.2365 0 34.847 0.252856 35.2971 0.702944C35.7471 1.15303 36 1.76348 36 2.4V21.6C36 22.2365 35.7471 22.847 35.2971 23.2971C34.847 23.7471 34.2365 24 33.6 24ZM28.484 19.719H28.47C28.3333 19.7196 28.1982 19.7482 28.0729 19.8031C27.9477 19.8579 27.8351 19.9379 27.742 20.038L27.741 20.039C27.544 20.2548 27.4348 20.5365 27.435 20.8287C27.4352 21.1209 27.5447 21.4025 27.742 21.618L27.741 21.617C27.923 21.814 28.182 21.937 28.47 21.937H28.484C28.6129 21.9458 28.7409 21.9219 28.8581 21.8678C28.9754 21.8136 29.0771 21.7308 29.154 21.627L29.155 21.625V21.891H29.608V18.922H29.155V20.032C29.0808 19.935 28.9853 19.8562 28.8759 19.8018C28.7666 19.7473 28.6462 19.7187 28.524 19.718L28.482 19.719H28.484ZM24.234 19.719H24.211C23.922 19.719 23.661 19.839 23.476 20.032C23.2787 20.2508 23.1695 20.535 23.1697 20.8297C23.1699 21.1243 23.2794 21.4084 23.477 21.627L23.476 21.626C23.662 21.819 23.923 21.939 24.212 21.939H24.236L24.28 21.94C24.399 21.94 24.5163 21.9118 24.6222 21.8575C24.728 21.8032 24.8195 21.7246 24.889 21.628L24.891 21.626V21.892H25.361V19.782H24.892V20.032C24.8161 19.9302 24.7165 19.8485 24.6018 19.7939C24.4871 19.7394 24.3609 19.7137 24.234 19.719ZM22.186 19.719L22.144 19.718C21.8496 19.718 21.5673 19.8349 21.3591 20.0431C21.1509 20.2513 21.034 20.5336 21.034 20.828C21.034 21.1224 21.1509 21.4047 21.3591 21.6129C21.5673 21.8211 21.8496 21.938 22.144 21.938L22.188 21.937H22.186L22.227 21.938C22.497 21.938 22.744 21.844 22.939 21.686L22.937 21.688L22.718 21.313C22.5725 21.426 22.3959 21.4916 22.212 21.501H22.21C22.1181 21.5069 22.026 21.4931 21.9398 21.4607C21.8536 21.4283 21.7753 21.378 21.71 21.313C21.5936 21.1784 21.5297 21.0063 21.5298 20.8283C21.53 20.6503 21.5943 20.4784 21.711 20.344L21.71 20.345C21.7666 20.285 21.835 20.2374 21.9109 20.205C21.9868 20.1727 22.0685 20.1563 22.151 20.157H22.172H22.171C22.3699 20.1576 22.5629 20.2241 22.72 20.346L22.718 20.344L22.937 19.969C22.7301 19.806 22.4744 19.7176 22.211 19.718L22.186 19.719ZM18.106 19.719H18.081C17.9452 19.7192 17.8109 19.7471 17.6863 19.8009C17.5617 19.8547 17.4493 19.9333 17.356 20.032C17.1548 20.2495 17.048 20.5379 17.059 20.834V20.832L17.058 20.878C17.058 21.173 17.175 21.441 17.364 21.637C17.554 21.826 17.816 21.942 18.105 21.942L18.139 21.941H18.137L18.178 21.942C18.491 21.942 18.777 21.829 18.999 21.642L18.997 21.644L18.778 21.301C18.6102 21.4498 18.3943 21.5329 18.17 21.535C18.0178 21.5482 17.8654 21.5022 17.7462 21.4067C17.6271 21.3112 17.5493 21.1734 17.529 21.022V21.019H19.107V20.832C19.1207 20.5368 19.0192 20.2478 18.824 20.026L18.825 20.027C18.737 19.9298 18.6296 19.8521 18.5097 19.7989C18.3898 19.7456 18.2601 19.7181 18.129 19.718H18.107L18.106 19.719ZM15.029 19.782V20.204H15.466V21.158C15.466 21.676 15.713 21.939 16.2 21.939H16.217C16.419 21.939 16.606 21.879 16.763 21.777L16.759 21.779L16.633 21.388C16.509 21.4581 16.3694 21.4959 16.227 21.498C16.029 21.498 15.9287 21.3837 15.928 21.155V20.205H16.678V19.783H15.928V19.143H15.459V19.783L15.029 19.782ZM13.062 21.312L12.859 21.672C13.106 21.839 13.41 21.938 13.737 21.938H13.767H13.765L13.831 21.94C14.07 21.94 14.293 21.869 14.48 21.747L14.475 21.75C14.5544 21.696 14.6194 21.6233 14.6644 21.5385C14.7093 21.4536 14.7329 21.359 14.733 21.263V21.249C14.7317 20.897 14.487 20.6897 13.999 20.625L13.781 20.593C13.541 20.5517 13.421 20.479 13.421 20.375C13.421 20.219 13.5513 20.141 13.812 20.141H13.817C14.062 20.141 14.292 20.205 14.491 20.317L14.484 20.313L14.672 19.938C14.4115 19.7833 14.1118 19.7072 13.809 19.719H13.812L13.758 19.718C13.5464 19.7177 13.3402 19.7846 13.169 19.909L13.172 19.907C13.0986 19.9635 13.0393 20.0363 12.9987 20.1195C12.9581 20.2028 12.9373 20.2944 12.938 20.387V20.408V20.407C12.9393 20.7497 13.184 20.9527 13.672 21.016L13.875 21.048C14.1243 21.09 14.2493 21.163 14.25 21.267C14.2507 21.4437 14.089 21.5323 13.765 21.533H13.756C13.5059 21.5336 13.2618 21.4559 13.058 21.311L13.062 21.314V21.312ZM11.28 19.718H11.255C11.1194 19.7184 10.9853 19.7463 10.8608 19.8001C10.7364 19.8539 10.6242 19.9325 10.531 20.031C10.3385 20.2523 10.2325 20.5358 10.2327 20.8292C10.2329 21.1225 10.3392 21.4059 10.532 21.627L10.531 21.626C10.6243 21.7247 10.7367 21.8033 10.8613 21.8571C10.9859 21.9109 11.1202 21.9388 11.256 21.939H11.282C11.4109 21.946 11.5385 21.9213 11.6557 21.8671C11.7728 21.8129 11.8749 21.7308 11.953 21.628L11.954 21.626V21.892H12.407V19.782H11.954V20.032C11.8744 19.9343 11.774 19.8556 11.6602 19.8014C11.5464 19.7473 11.422 19.7191 11.296 19.719L11.28 19.718ZM25.968 19.781V21.891H26.421V20.704C26.421 20.3413 26.572 20.1593 26.874 20.158H26.884C26.984 20.1587 27.076 20.18 27.16 20.222L27.156 20.22L27.296 19.782C27.2025 19.7394 27.1008 19.7179 26.998 19.719L26.966 19.72H26.968H26.951C26.8433 19.7195 26.7374 19.748 26.6445 19.8026C26.5516 19.8571 26.4751 19.9357 26.423 20.03L26.421 20.033V19.783L25.968 19.781ZM19.578 19.781V21.891H20.047V20.704C20.047 20.3413 20.198 20.1593 20.5 20.158H20.51C20.61 20.1587 20.702 20.18 20.786 20.222L20.782 20.22L20.923 19.782C20.8249 19.7406 20.7195 19.7192 20.613 19.719H20.594H20.577C20.4694 19.7187 20.3638 19.7473 20.2711 19.8018C20.1783 19.8564 20.102 19.9348 20.05 20.029L20.048 20.032V19.782L19.578 19.781ZM8.89 20.156C9.202 20.1573 9.35833 20.344 9.359 20.716V21.888H9.828V20.56L9.829 20.527C9.82864 20.316 9.74698 20.1133 9.601 19.961C9.43532 19.8074 9.21793 19.7217 8.992 19.721H8.983C8.83876 19.7111 8.69453 19.7404 8.56563 19.8059C8.43674 19.8714 8.32801 19.9706 8.251 20.093L8.249 20.096C8.17785 19.9742 8.07423 19.8747 7.94972 19.8084C7.82521 19.7422 7.68473 19.7119 7.544 19.721H7.546H7.537C7.4195 19.7208 7.30368 19.749 7.1994 19.8031C7.09512 19.8573 7.00544 19.9358 6.938 20.032L6.936 20.034V19.784H6.469V21.894H6.938V20.72C6.93933 20.3467 7.11133 20.16 7.454 20.16C7.766 20.1613 7.92233 20.348 7.923 20.72V21.892H8.376V20.72C8.37733 20.3467 8.549 20.16 8.891 20.16L8.89 20.156ZM22.906 2H22.873C21.3095 1.99903 19.7817 2.46798 18.488 3.346L18.515 3.329C19.8205 4.3874 20.7808 5.81106 21.273 7.418L21.289 7.478C21.525 8.223 21.66 9.079 21.66 9.968C21.66 10.847 21.527 11.694 21.281 12.492L21.297 12.432C20.8164 14.0545 19.8512 15.4914 18.531 16.55L18.515 16.563C19.8116 17.433 21.3386 17.8954 22.9 17.891C24.02 17.891 25.085 17.658 26.05 17.238L25.999 17.258C27.89 16.4651 29.3986 14.9679 30.206 13.083L30.225 13.032C30.625 12.122 30.858 11.061 30.858 9.946C30.858 8.831 30.625 7.77 30.205 6.81L30.225 6.86C29.4315 4.96705 27.9308 3.45839 26.042 2.655L25.991 2.636C25.0203 2.21606 23.9736 2.00058 22.916 2.003H22.905L22.906 2ZM13.094 2H13.083C12.0075 1.99957 10.9436 2.22155 9.958 2.652L10.008 2.632C8.11179 3.42032 6.59881 4.91858 5.792 6.807L5.773 6.858C5.373 7.768 5.14 8.829 5.14 9.944C5.14 11.059 5.373 12.12 5.793 13.08L5.773 13.03C6.56594 14.921 8.06308 16.4296 9.948 17.237L9.999 17.256C10.913 17.656 11.979 17.889 13.098 17.889C14.6705 17.8919 16.2078 17.423 17.511 16.543L17.483 16.561C16.1704 15.5075 15.2064 14.0824 14.717 12.472L14.702 12.413C14.4604 11.6158 14.3387 10.787 14.341 9.954C14.3395 8.68834 14.6194 7.43818 15.1604 6.29396C15.7014 5.14975 16.4899 4.14008 17.469 3.338L17.484 3.326C16.1977 2.45634 14.6797 1.99363 13.127 1.998H13.091H13.093L13.094 2ZM18 3.703C16.7367 4.67985 15.8037 6.0209 15.327 7.545L15.312 7.6C15.0717 8.36321 14.9503 9.15886 14.952 9.959C14.952 10.793 15.081 11.596 15.32 12.351L15.305 12.295C15.7712 13.8354 16.7071 15.1917 17.982 16.174L18 16.187C19.2702 15.2172 20.2072 13.8762 20.681 12.35L20.696 12.296C20.9332 11.5398 21.0523 10.7515 21.049 9.959C21.049 9.116 20.917 8.305 20.674 7.543L20.689 7.599C20.2208 6.05998 19.2882 4.70336 18.019 3.715L18.001 3.702L18 3.703ZM28.546 21.5H28.529C28.4457 21.5 28.3632 21.4827 28.287 21.4492C28.2107 21.4156 28.1423 21.3665 28.086 21.305C27.9694 21.1732 27.9052 21.0033 27.9054 20.8273C27.9056 20.6514 27.9702 20.4816 28.087 20.35L28.086 20.351C28.1457 20.289 28.2173 20.2397 28.2965 20.206C28.3757 20.1723 28.4609 20.1549 28.547 20.1549C28.6331 20.1549 28.7183 20.1723 28.7975 20.206C28.8767 20.2397 28.9483 20.289 29.008 20.351C29.1242 20.4842 29.1881 20.655 29.1879 20.8317C29.1878 21.0084 29.1235 21.1791 29.007 21.312L29.008 21.311C28.9511 21.3715 28.8823 21.4196 28.8058 21.4521C28.7294 21.4846 28.6471 21.5009 28.564 21.5H28.546ZM24.281 21.5H24.259C24.1783 21.4994 24.0985 21.4826 24.0244 21.4504C23.9504 21.4183 23.8836 21.3716 23.828 21.313C23.7158 21.1762 23.6546 21.0047 23.6548 20.8278C23.655 20.6509 23.7166 20.4796 23.829 20.343L23.828 20.344C23.8835 20.2853 23.9503 20.2383 24.0243 20.206C24.0984 20.1737 24.1782 20.1567 24.259 20.156H24.282H24.299C24.474 20.156 24.632 20.231 24.741 20.351C24.853 20.472 24.921 20.634 24.921 20.812V20.832V20.831L24.922 20.858C24.9216 21.0269 24.8601 21.1899 24.749 21.317L24.75 21.316C24.6936 21.3746 24.6259 21.4212 24.5509 21.4528C24.476 21.4844 24.3954 21.5005 24.314 21.5L24.28 21.499H24.282L24.281 21.5ZM11.343 21.5L11.314 21.501C11.2319 21.5014 11.1505 21.4849 11.075 21.4526C10.9995 21.4202 10.9314 21.3727 10.875 21.313C10.7628 21.1762 10.7016 21.0047 10.7018 20.8278C10.702 20.6509 10.7636 20.4796 10.876 20.343L10.875 20.344C10.9351 20.2804 11.0084 20.2306 11.0898 20.1983C11.1712 20.166 11.2586 20.1519 11.346 20.157H11.368C11.4494 20.1569 11.53 20.1742 11.6041 20.2079C11.6783 20.2415 11.7444 20.2907 11.798 20.352L11.799 20.353C11.9096 20.4888 11.9699 20.6586 11.9697 20.8337C11.9695 21.0088 11.9088 21.1784 11.798 21.314L11.799 21.313C11.7433 21.372 11.6762 21.4191 11.6018 21.4514C11.5273 21.4837 11.4471 21.5006 11.366 21.501H11.344H11.345L11.343 21.5ZM18.64 20.64H17.547C17.5609 20.5048 17.6244 20.3795 17.7253 20.2883C17.8261 20.1972 17.9572 20.1466 18.0931 20.1464C18.229 20.1461 18.3603 20.1962 18.4614 20.287C18.5626 20.3778 18.6266 20.5028 18.641 20.638L18.64 20.64Z" fill="black"/>
</g>
<defs>
<clipPath id="clip0_270_369">
<rect width="36" height="24" fill="white"/>
</clipPath>
</defs>
</svg>
