<svg width="25" height="24" viewBox="0 0 25 24" fill="none" xmlns="http://www.w3.org/2000/svg">
<path opacity="0.99" fill-rule="evenodd" clip-rule="evenodd" d="M1.07641 0C8.09303 0 15.1096 0 22.1263 0C22.7017 0.156879 23.0538 0.528973 23.1827 1.11628C23.2093 2.00664 23.2093 2.89701 23.1827 3.78738C23.0565 4.39204 22.6911 4.75746 22.0864 4.88372C15.0964 4.91032 8.1063 4.91032 1.11628 4.88372C0.457962 4.73717 0.0858698 4.33188 0 3.66778C0 2.85715 0 2.04651 0 1.23588C0.0887371 0.588985 0.44754 0.177027 1.07641 0Z" fill="black"/>
<path opacity="0.992" fill-rule="evenodd" clip-rule="evenodd" d="M24.4784 7.45533C24.4784 8.37227 24.4784 9.28922 24.4784 10.2062C24.3215 10.7816 23.9495 11.1337 23.3621 11.2626C15.9601 11.2892 8.55816 11.2892 1.15615 11.2626C0.474411 11.1326 0.0890273 10.7272 0 10.0467C0 9.23607 0 8.42542 0 7.6148C0.08004 6.96959 0.438845 6.5643 1.07641 6.39885C8.53157 6.37226 15.9867 6.37226 23.4419 6.39885C24.0103 6.53535 24.3558 6.8875 24.4784 7.45533Z" fill="black"/>
<path opacity="0.99" fill-rule="evenodd" clip-rule="evenodd" d="M0 16.3857C0 15.5884 0 14.791 0 13.9937C0.0760059 13.3657 0.421519 12.9604 1.03655 12.7778C8.07975 12.7512 15.1229 12.7512 22.1661 12.7778C22.7366 12.9288 23.0755 13.2942 23.1827 13.8741C23.2093 14.7645 23.2093 15.6548 23.1827 16.5452C23.0477 17.1851 22.6557 17.5506 22.0067 17.6415C15.0698 17.6681 8.1329 17.6681 1.19601 17.6415C0.474451 17.5247 0.0757779 17.1061 0 16.3857Z" fill="black"/>
<path opacity="0.996" fill-rule="evenodd" clip-rule="evenodd" d="M13.2359 23.9998C9.15616 23.9998 5.0764 23.9998 0.996678 23.9998C0.42077 23.8051 0.0885437 23.4064 0 22.8038C0 21.9799 0 21.156 0 20.332C0.0913862 19.7419 0.423612 19.3498 0.996678 19.156C5.11798 19.1165 9.23761 19.1297 13.3555 19.1958C13.8021 19.3766 14.0746 19.7022 14.1728 20.1726C14.1994 21.1028 14.1994 22.0331 14.1728 22.9633C14.0473 23.4806 13.735 23.8262 13.2359 23.9998Z" fill="black"/>
</svg>
