<svg width="20" height="20" viewBox="0 0 20 20" fill="none" xmlns="http://www.w3.org/2000/svg">
<g clip-path="url(#clip0_397_723)">
<path d="M8.75 1.66699C10.08 1.6669 11.3831 2.04125 12.5102 2.74718C13.6374 3.45312 14.543 4.46213 15.1235 5.65874C15.704 6.85534 15.9359 8.1912 15.7926 9.51343C15.6493 10.8357 15.1367 12.0908 14.3133 13.1353L17.3567 16.1787C17.5085 16.3358 17.5925 16.5463 17.5906 16.7648C17.5887 16.9833 17.501 17.1923 17.3465 17.3468C17.192 17.5013 16.983 17.589 16.7645 17.5909C16.546 17.5928 16.3355 17.5088 16.1783 17.357L13.135 14.3137C12.2479 15.0128 11.2064 15.4896 10.0975 15.7044C8.98862 15.9192 7.84443 15.8657 6.76043 15.5483C5.67642 15.231 4.68402 14.659 3.86603 13.8801C3.04804 13.1012 2.42817 12.138 2.05815 11.0708C1.68812 10.0036 1.57867 8.86344 1.73892 7.74536C1.89917 6.62728 2.32448 5.56373 2.97936 4.64345C3.63424 3.72317 4.49971 2.97285 5.50354 2.45507C6.50738 1.9373 7.62049 1.66709 8.75 1.66699ZM8.75 3.33366C7.31341 3.33366 5.93566 3.90434 4.91984 4.92016C3.90401 5.93599 3.33333 7.31374 3.33333 8.75033C3.33333 10.1869 3.90401 11.5647 4.91984 12.5805C5.93566 13.5963 7.31341 14.167 8.75 14.167C10.1866 14.167 11.5643 13.5963 12.5802 12.5805C13.596 11.5647 14.1667 10.1869 14.1667 8.75033C14.1667 7.31374 13.596 5.93599 12.5802 4.92016C11.5643 3.90434 10.1866 3.33366 8.75 3.33366ZM8.75 4.16699C9.96557 4.16699 11.1314 4.64988 11.9909 5.50942C12.8504 6.36896 13.3333 7.53475 13.3333 8.75033C13.3333 9.9659 12.8504 11.1317 11.9909 11.9912C11.1314 12.8508 9.96557 13.3337 8.75 13.3337C7.53442 13.3337 6.36863 12.8508 5.50909 11.9912C4.64955 11.1317 4.16666 9.9659 4.16666 8.75033C4.16666 7.53475 4.64955 6.36896 5.50909 5.50942C6.36863 4.64988 7.53442 4.16699 8.75 4.16699Z" fill="#BBBCBE"/>
</g>
<defs>
<clipPath id="clip0_397_723">
<rect width="20" height="20" fill="white"/>
</clipPath>
</defs>
</svg>
