<svg width="42" height="24" viewBox="0 0 42 24" fill="none" xmlns="http://www.w3.org/2000/svg">
<path opacity="0.995" fill-rule="evenodd" clip-rule="evenodd" d="M14.6361 0.00881123C14.9612 -0.0105004 15.263 0.0649433 15.5414 0.235142C17.0503 1.19076 18.5591 2.14639 20.068 3.102C20.227 3.31137 20.2521 3.5377 20.1435 3.78099C15.3454 10.5355 10.4918 17.2499 5.58283 23.9244C5.33135 24.0251 5.07988 24.0251 4.82839 23.9244C3.20546 22.9497 1.62115 21.9187 0.0754437 20.8313C-0.0251479 20.6301 -0.0251479 20.4288 0.0754437 20.2277C4.90351 13.4643 9.75705 6.72464 14.6361 0.00881123Z" fill="black"/>
<path opacity="0.995" fill-rule="evenodd" clip-rule="evenodd" d="M23.5384 0.00888337C23.7948 -0.0152855 24.0463 0.00986248 24.2928 0.084327C25.9158 1.05905 27.5001 2.0901 29.0458 3.17752C29.1464 3.37869 29.1464 3.57989 29.0458 3.78107C24.2477 10.5356 19.3941 17.25 14.4852 23.9245C14.284 24.0252 14.0828 24.0252 13.8816 23.9245C12.2722 22.9186 10.6627 21.9127 9.05323 20.9068C8.89425 20.6973 8.8691 20.471 8.97779 20.2278C13.8058 13.4643 18.6593 6.72471 23.5384 0.00888337Z" fill="black"/>
<path opacity="0.995" fill-rule="evenodd" clip-rule="evenodd" d="M32.4408 0.00952036C32.8163 -0.0209937 33.1685 0.0544499 33.497 0.235851C34.8295 1.12861 36.1875 1.98364 37.571 2.80094C37.9491 3.02964 38.0749 3.35656 37.9482 3.7817C33.1531 10.5384 28.2995 17.2529 23.3875 23.9252C23.2367 24.0258 23.0858 24.0258 22.9349 23.9252C21.1156 22.9316 19.4055 21.7999 17.8047 20.5302C22.6849 13.6856 27.5635 6.84533 32.4408 0.00952036Z" fill="black"/>
<path opacity="0.995" fill-rule="evenodd" clip-rule="evenodd" d="M35.9112 7.7041C36.4008 7.76145 36.8535 7.93749 37.2692 8.23221C38.4361 9.04636 39.6432 9.8008 40.8905 10.4955C41.1713 10.6507 41.3726 10.877 41.494 11.1745C38.6895 15.2246 35.8477 19.2483 32.9689 23.2455C32.7572 23.6082 32.4554 23.8598 32.0636 23.9999C30.3151 23.0059 28.6051 21.9497 26.9334 20.8313C26.8327 20.5798 26.8327 20.3284 26.9334 20.0769C29.959 15.9709 32.9515 11.8467 35.9112 7.7041Z" fill="black"/>
</svg>
